<?xml version="1.0" encoding="UTF-8" standalone="no"?>
<svg
   version="1.1"
   id="svg-f5-campusnav"
   width="1122.6667"
   height="1588"
   viewBox="0 0 1122.6667 1588"
   inkscape:version="1.4.4 (dcaf3e7, 2026-05-05)"
   sodipodi:docname="E Block - Fifth Floor.svg"
   inkscape:docname="E Block - 5th Floor Final Map.svg"
   xml:space="preserve"
   xmlns:inkscape="http://www.inkscape.org/namespaces/inkscape"
   xmlns:sodipodi="http://sodipodi.sourceforge.net/DTD/sodipodi-0.dtd"
   xmlns="http://www.w3.org/2000/svg"
   xmlns:svg="http://www.w3.org/2000/svg"
   xmlns:rdf="http://www.w3.org/1999/02/22-rdf-syntax-ns#"
   xmlns:cc="http://creativecommons.org/ns#"
   xmlns:dc="http://purl.org/dc/elements/1.1/"><defs
     id="defs47" /><sodipodi:namedview
     id="namedview47"
     pagecolor="#ffffff"
     bordercolor="#000000"
     borderopacity="0.25"
     inkscape:showpageshadow="2"
     inkscape:pageopacity="0.0"
     inkscape:pagecheckerboard="0"
     inkscape:deskcolor="#d1d1d1"
     showgrid="false"
     inkscape:zoom="0.97355162"
     inkscape:cx="580.86288"
     inkscape:cy="885.93145"
     inkscape:window-width="1920"
     inkscape:window-height="991"
     inkscape:window-x="-9"
     inkscape:window-y="-9"
     inkscape:window-maximized="1"
     inkscape:current-layer="nav-edges-f5"
     showguides="false"
     inkscape:rotation="90"><inkscape:page
       x="0"
       y="0"
       width="1122.6667"
       height="1588"
       id="page2"
       margin="0"
       bleed="0" /></sodipodi:namedview><title
     id="title1">PRP E Block - 1st Floor CampusNav Final Map</title><g
     id="map-walls-f5"
     inkscape:groupmode="layer"
     inkscape:label="MAP - Walls"><path
       style="fill:none;stroke:#000000;stroke-width:3;stroke-dasharray:none"
       d="m 288.74231,1230.2983 c 0,0 0,0 -12.21594,-0.2378 0,0 -0.74047,0 -0.13228,13.5927 0,0 0,0 -110.70333,-0.1499 0,0 0,0 0.54853,-56.3641 0,0 0,0 1.44789,-110.7328 122.91397,0.9314 122.91397,0.9314 122.91397,0.9314 -0.24693,25.3729 -0.24693,25.3729 -0.24693,25.3729 -13.32487,-0.4242 -13.32487,-0.4242 -13.32487,-0.4242 -1.35786,82.4593 -1.35786,82.4593 -1.35786,82.4593 0.14624,23.0185 0.14624,23.0185 0.14624,23.0185 13.32487,0.4242 13.32487,0.4242 13.32487,0.4242"
       id="path140571" /><path
       style="fill:none;stroke:#000000;stroke-width:3;stroke-dasharray:none"
       d="m 249.68766,1266.2496 c 22.77364,0.3617 22.77364,0.3617 22.77364,0.3617 -0.65091,39.9824 -0.65091,39.9824 -0.65091,39.9824 -0.0324,3.3319 -0.0324,3.3319 -0.0324,3.3319 -89.53374,-0.4143 -89.53374,-0.4143 -89.53374,-0.4143 -0.17428,-62.7983 -0.17428,-62.7983 -0.17428,-62.7983 90.32163,0.1616 90.32163,0.1616 90.32163,0.1616"
       id="path140574" /><path
       style="fill:none;stroke:#000000;stroke-width:3;stroke-dasharray:none"
       d="m 306.12293,1304.9583 c 0.22406,84.5854 0.22406,84.5854 0.22406,84.5854 -9.31995,16.1048 -9.31995,16.1048 -9.31995,16.1048 -114.01252,-67.6825 -114.01252,-67.6825 -114.01252,-67.6825 0.27687,-28.4499 0.27687,-28.4499 0.27687,-28.4499"
       id="path140575" /><path
       style="fill:none;stroke:#000000;stroke-width:3;stroke-dasharray:none"
       d="m 284.17199,1327.6688 c 20.42496,-0.418 20.42496,-0.418 20.42496,-0.418"
       id="path140576" /><path
       style="fill:none;stroke:#000000;stroke-width:3;stroke-dasharray:none"
       d="m 308.02306,1244.22 c 0.34399,18.4564 0.34399,18.4564 0.34399,18.4564"
       id="path140577" /><path
       style="fill:none;stroke:#000000;stroke-width:3;stroke-dasharray:none"
       d="m 307.3971,1281.6393 c -0.5237,26.9109 -0.5237,26.9109 -0.5237,26.9109"
       id="path140578" /><path
       style="fill:none;stroke:#000000;stroke-width:3;stroke-dasharray:none"
       d="m 308.60879,1291.6413 c 30.01169,-17.0343 30.01169,-17.0343 30.01169,-17.0343 86.82872,-44.4535 86.82872,-44.4535 86.82872,-44.4535"
       id="path140579" /><path
       style="fill:none;stroke:#000000;stroke-width:3;stroke-dasharray:none"
       d="m 309.06276,1244.9938 c 26.44374,-0.1339 26.44374,-0.1339 26.44374,-0.1339 -0.58356,33.0622 -0.58356,33.0622 -0.58356,33.0622"
       id="path140580" /><path
       style="fill:none;stroke:#000000;stroke-width:3;stroke-dasharray:none"
       d="m 442.37854,1239.2029 c 52.06958,29.9737 52.06958,29.9737 52.06958,29.9737 13.38633,23.3867 13.38633,23.3867 13.38633,23.3867"
       id="path140581" /><path
       style="fill:none;stroke:#000000;stroke-width:3;stroke-dasharray:none"
       d="m 516.56585,1310.0332 c 0,0 0,0 -173.99903,97.1076 0.79091,-135.0751 0.79091,-135.0751 0.79091,-135.0751"
       id="path140582" /><path
       style="fill:none;stroke:#000000;stroke-width:3;stroke-dasharray:none"
       d="m 548.90919,1187.92 c -51.56604,-1.0076 -51.56604,-1.0076 -51.56604,-1.0076 -33.6893,18.2989 -33.6893,18.2989 -33.6893,18.2989"
       id="path140583" /><path
       style="fill:none;stroke:#000000;stroke-width:3;stroke-dasharray:none"
       d="m 437.09547,1190.222 c 38.27429,21.7077 38.27429,21.7077 38.27429,21.7077"
       id="path140584" /><path
       style="fill:none;stroke:#000000;stroke-width:3;stroke-dasharray:none"
       d="m 487.07569,1219.6734 c 46.61178,25.8473 46.61178,25.8473 46.61178,25.8473 15.88467,8.7882 15.88467,8.7882 15.88467,8.7882 -0.14684,-65.6175 -0.14684,-65.6175 -0.14684,-65.6175"
       id="path140585" /><path
       style="fill:none;stroke:#000000;stroke-width:3;stroke-dasharray:none"
       d="m 448.30287,1168.487 c 0.63356,-65.1014 0.63356,-65.1014 0.63356,-65.1014"
       id="path140586" /><path
       style="fill:none;stroke:#000000;stroke-width:3;stroke-dasharray:none"
       d="m 448.89912,1080.317 c 101.82561,1.7527 101.82561,1.7527 101.82561,1.7527 -1.29694,106.3653 -1.29694,106.3653 -1.29694,106.3653"
       id="path140587" /><path
       style="fill:none;stroke:#000000;stroke-width:3;stroke-dasharray:none"
       d="m 541.90183,992.4103 c -47.39341,0.14316 -47.39341,0.14316 -47.39341,0.14316 -0.0673,83.00894 -0.0673,83.00894 -0.0673,83.00894 65.53132,0.3033 65.53132,0.3033 65.53132,0.3033 -0.67315,-83.01241 -0.67315,-83.01241 -0.67315,-83.01241"
       id="path140588" /><path
       style="fill:none;stroke:#000000;stroke-width:3;stroke-dasharray:none"
       d="m 683.89969,744.402 c 60.70771,1.3684 60.70771,1.3684 60.70771,1.3684"
       id="path140592" /><path
       style="fill:none;stroke:#000000;stroke-width:3;stroke-dasharray:none"
       d="m 544.74515,662.19866 c -47.38987,-0.21931 -47.38987,-0.21931 -47.38987,-0.21931 1.5e-4,-38.06103 1.5e-4,-38.06103 1.5e-4,-38.06103"
       id="path140593" /><path
       style="fill:none;stroke:#000000;stroke-width:3;stroke-dasharray:none"
       d="m 168.24429,1076.2278 c 1.63676,-168.18596 1.63676,-168.18596 1.63676,-168.18596 121.05222,2.01016 121.05222,2.01016 121.05222,2.01016 0.15505,22.11237 0.15505,22.11237 0.15505,22.11237 -12.96169,0.30249 -12.96169,0.30249 -12.96169,0.30249 -0.2437,101.13244 -0.2437,101.13244 -0.2437,101.13244 12.21064,0.7815 12.21064,0.7815 12.21064,0.7815"
       id="path140594" /><path
       style="fill:none;stroke:#000000;stroke-width:3;stroke-dasharray:none"
       d="m 169.01298,1073.3315 c 110.32956,0.5106 110.32956,0.5106 110.32956,0.5106 -0.20797,-16.6754 -0.20797,-16.6754 -0.20797,-16.6754 11.107,0.051 11.107,0.051 11.107,0.051"
       id="path140595" /><path
       style="fill:none;stroke:#000000;stroke-width:3;stroke-dasharray:none"
       d="m 336.61738,705.0963 c 0,0 0,0 0.86087,-126.50365 81.08816,-0.34971 81.08816,-0.34971 81.08816,-0.34971 -0.8785,128.316 -0.8785,128.316 -0.8785,128.316"
       id="path140596" /><path
       style="fill:none;stroke:#000000;stroke-width:3;stroke-dasharray:none"
       d="m 335.27739,728.65169 c 0.148,22.83732 0.148,22.83732 0.148,22.83732 81.82159,0.37865 81.82159,0.37865 81.82159,0.37865 0.22223,-22.8356 0.22223,-22.8356 0.22223,-22.8356"
       id="path140597" /><path
       style="fill:none;stroke:#000000;stroke-width:3;stroke-dasharray:none"
       d="m 173.96973,411.81735 c -2.27876,234.15546 -2.27876,234.15546 -2.27876,234.15546 -1.1992,85.17867 -1.1992,85.17867 -1.1992,85.17867 0.23972,13.4131 0.23972,13.4131 0.23972,13.4131 110.33309,0.14811 110.33309,0.14811 110.33309,0.14811 -0.21855,-15.58792 -0.21855,-15.58792 -0.21855,-15.58792 13.33193,-0.30079 13.33193,-0.30079 13.33193,-0.30079"
       id="path140598" /><path
       style="fill:none;stroke:#000000;stroke-width:3;stroke-dasharray:none"
       d="m 280.70155,705.925 c 1.3791,-103.66464 1.3791,-103.66464 1.3791,-103.66464 12.95817,0.06 12.95817,0.06 12.95817,0.06 -0.14095,-23.56224 -0.14095,-23.56224 -0.14095,-23.56224 C 173.46132,578.1961 173.46132,578.1961 173.46132,578.1961"
       id="path140599" /><path
       style="fill:none;stroke:#000000;stroke-width:3;stroke-dasharray:none"
       d="m 174.33292,412.54401 c 121.44361,-0.16296 121.44361,-0.16296 121.44361,-0.16296 -0.96622,23.19464 -0.96622,23.19464 -0.96622,23.19464 -11.48782,1.03429 -11.48782,1.03429 -11.48782,1.03429 -1.74581,103.30045 -1.74581,103.30045 -1.74581,103.30045 12.21065,0.78148 12.21065,0.78148 12.21065,0.78148"
       id="path140600" /><path
       style="fill:none;stroke:#000000;stroke-width:3;stroke-dasharray:none"
       d="m 173.85977,575.29806 c 109.21885,0.50544 109.21885,0.50544 109.21885,0.50544 -0.61347,-13.05234 -0.61347,-13.05234 -0.61347,-13.05234 13.70217,-0.29907 13.70217,-0.29907 13.70217,-0.29907"
       id="path140601" /><path
       style="fill:none;stroke:#000000;stroke-width:3;stroke-dasharray:none"
       d="m 502.09807,593.12895 c 62.19569,0.65031 62.19569,0.65031 62.19569,0.65031 -1.78799,69.58905 -1.78799,69.58905 -1.78799,69.58905"
       id="path140602" /><path
       style="fill:none;stroke:#000000;stroke-width:3;stroke-dasharray:none"
       d="m 454.60667,413.11608 c 103.28807,1.20297 103.28807,1.20297 103.28807,1.20297 -2.34196,164.55784 -2.34196,164.55784 -2.34196,164.55784 -100.69643,-1.19098 -100.69643,-1.19098 -100.69643,-1.19098"
       id="path140603" /><path
       style="fill:none;stroke:#000000;stroke-width:4.1315;stroke-dasharray:none"
       d="m 515.2703,754.33 c 215.72497,1.09238 215.72497,1.09238 215.72497,1.09238 -4.89135,149.43046 -4.89135,149.43046 -4.89135,149.43046 -210.31214,-1.08149 -210.31214,-1.08149 -210.31214,-1.08149"
       id="path140603-8" /><path
       style="fill:none;stroke:#000000;stroke-width:3;stroke-dasharray:none"
       d="M 454.74409,437.04079 C 453.97141,554.4827 453.97141,554.4827 453.97141,554.4827"
       id="path140604" /><path
       style="fill:none;stroke:#000000;stroke-width:3;stroke-dasharray:none"
       d="m 559.19227,992.14189 c 11.52147,-0.203 11.52147,-0.203 11.52147,-0.203 14.67535,25.44321 14.67535,25.44321 14.67535,25.44321 159.76484,-87.17713 159.76484,-87.17713 159.76484,-87.17713 -0.34648,-18.20007 -0.34648,-18.20007 -0.34648,-18.20007 1.20931,-16.65496 1.20931,-16.65496 1.20931,-16.65496"
       id="path140607" /><path
       style="fill:none;stroke:#000000;stroke-width:3;stroke-dasharray:none"
       d="m 562.39748,662.79021 c 12.56115,0.57076 12.56115,0.57076 12.56115,0.57076"
       id="path140608" /><path
       style="fill:none;stroke:#000000;stroke-width:3;stroke-dasharray:none"
       d="m 581.35644,651.60003 c 8.51461,-14.05799 8.51461,-14.05799 8.51461,-14.05799 156.74727,88.38558 156.74727,88.38558 156.74727,88.38558 0.96227,35.63242 0.96227,35.63242 0.96227,35.63242"
       id="path140609" /><path
       style="fill:none;stroke:#000000;stroke-width:3;stroke-dasharray:none"
       d="m 344.27498,1339.2249 c 136.62467,-76.7752 136.62467,-76.7752 136.62467,-76.7752"
       id="path140610" /><path
       style="fill:none;stroke:#000000;stroke-width:3;stroke-dasharray:none"
       d="m 175.09102,410.73509 c 75.55952,-40.97374 75.55952,-40.97374 75.55952,-40.97374 16.04335,25.44827 16.04335,25.44827 16.04335,25.44827 18.50813,0.44814 18.50813,0.44814 18.50813,0.44814"
       id="path140611" /><path
       style="fill:none;stroke:#000000;stroke-width:3;stroke-dasharray:none"
       d="m 459.20821,396.82551 c 9.99982,-0.31621 9.99982,-0.31621 9.99982,-0.31621 15.04569,-24.21694 15.04569,-24.21694 15.04569,-24.21694"
       id="path140612" /><path
       style="fill:none;stroke:#000000;stroke-width:3;stroke-dasharray:none"
       d="m 275.22352,355.73811 c 90.4782,-52.14176 90.4782,-52.14176 90.4782,-52.14176 v 0 c 4.81304,0.0223 4.81304,0.0223 4.81304,0.0223 183.69175,109.23342 183.69175,109.23342 183.69175,109.23342"
       id="path140613" /><path
       style="fill:none;stroke:#000000;stroke-width:3;stroke-dasharray:none"
       d="m 421.45511,1232.5436 c 0,0 0,0 -84.05709,1.061 -0.48312,11.5973 -0.48312,11.5973 -0.48312,11.5973"
       id="path140615" /><path
       style="fill:none;stroke:#00aad4;stroke-width:3;stroke-dasharray:none"
       d="m 415.68759,969.17083 c 0,0 0,0 0.61379,-63.06973 0,0 0,0 -81.15503,-0.86203 -1.73626,232.21463 -1.73626,232.21463 -1.73626,232.21463 v 0 c 80.45033,0.4461 80.45033,0.4461 80.45033,0.4461 0.67368,-50.2013 0.67368,-50.2013 0.67368,-50.2013 1.66475,-113.99423 1.66475,-113.99423 1.66475,-113.99423 -0.46187,-9.60802 -0.46187,-9.60802 -0.46187,-9.60802"
       id="path140616" /><path
       style="fill:none;stroke:#00aad4;stroke-width:3;stroke-dasharray:none"
       d="m 334.20848,857.51054 c 83.48588,0.5676 83.48588,0.5676 83.48588,0.5676 0.0602,-63.25354 0.0602,-63.25354 0.0602,-63.25354"
       id="path140617" /><path
       style="fill:none;stroke:#00aad4;stroke-width:3;stroke-dasharray:none"
       d="m 417.38079,795.18536 c 0,0 0,0 -82.37341,-0.74369 -0.61378,63.06973 -0.61378,63.06973 -0.61378,63.06973"
       id="path140618" /><path
       style="fill:none;stroke:#00aad4;stroke-width:3;stroke-dasharray:none"
       d="m 420.99633,461.71492 c 0,0 0,0 -82.56029,-0.56332 -1.47434,113.45132 -1.47434,113.45132 -1.47434,113.45132 82.56381,0.20084 82.56381,0.20084 82.56381,0.20084"
       id="path140619" /><path
       style="fill:none;stroke:#00aad4;stroke-width:3;stroke-dasharray:none"
       d="m 418.59287,575.52442 c 1.84458,-113.4496 1.84458,-113.4496 1.84458,-113.4496"
       id="path140620" /><path
       id="f7-room136-walls"
       style="fill:none;stroke:#000000;stroke-width:3.5;stroke-linecap:butt;stroke-linejoin:miter;stroke-opacity:1"
       d="m 170.61255,745.72937 -1.57843,162.19188 110.10407,0.50954 0.15056,-15.47061 m 0.2234,-22.95639 1.20447,-123.76488 z" /><path
       id="f7-143-partition"
       style="fill:none;stroke:#000000;stroke-width:3.5;stroke-linecap:butt;stroke-linejoin:miter;stroke-opacity:1"
       d="m 336.48271,641.69136 82.17026,0.38027" /><path
       id="f7-west-exterior-close"
       style="fill:none;stroke:#000000;stroke-width:3.5;stroke-linecap:butt;stroke-linejoin:miter;stroke-opacity:1"
       d="m 170.61255,745.72937 -1.57843,162.19188" /><path
       id="f7-east-exterior-close"
       style="fill:none;stroke:#000000;stroke-width:3.5;stroke-linecap:butt;stroke-linejoin:miter;stroke-opacity:1"
       d="m 747.30924,761.37414 -1.30159,133.74591" /><path
       style="fill:none;stroke:#000000;stroke-width:3;stroke-dasharray:none"
       d="m 519.47263,765.0309 c -0.77268,117.44191 -0.77268,117.44191 -0.77268,117.44191"
       id="path140604-4" /></g><g
     id="map-rooms-f5"
     inkscape:groupmode="layer"
     inkscape:label="MAP - Rooms"><text
       id="room-526-label"
       x="427.90356"
       y="1267.1012"
       style="font-weight:600;font-size:14px;font-family:Arial, sans-serif;text-anchor:middle;fill:#000000">526</text><text
       id="room-527-label"
       x="292.86356"
       y="1325.6613"
       style="font-weight:600;font-size:14px;font-family:Arial, sans-serif;text-anchor:middle;fill:#000000">527</text><text
       id="room-528-label"
       x="279.26355"
       y="1259.5812"
       style="font-weight:600;font-size:14px;font-family:Arial, sans-serif;text-anchor:middle;fill:#000000">528</text><text
       id="room-529-label"
       x="269.18356"
       y="1220.8612"
       style="font-weight:600;font-size:14px;font-family:Arial, sans-serif;text-anchor:middle;fill:#000000">529</text><text
       id="room-530-label"
       x="268.86356"
       y="1052.8612"
       style="font-weight:600;font-size:14px;font-family:Arial, sans-serif;text-anchor:middle;fill:#000000">530</text><text
       id="room-531-label"
       x="268.22357"
       y="886.62122"
       style="font-weight:600;font-size:14px;font-family:Arial, sans-serif;text-anchor:middle;fill:#000000">531</text><text
       id="room-532-label"
       x="269.50357"
       y="718.94122"
       style="font-weight:600;font-size:14px;font-family:Arial, sans-serif;text-anchor:middle;fill:#000000">532</text><text
       id="room-533-label"
       x="348.54355"
       y="720.86121"
       style="font-weight:600;font-size:14px;font-family:Arial, sans-serif;text-anchor:middle;fill:#000000">533</text><text
       id="room-534-label"
       x="266.78357"
       y="553.18121"
       style="font-weight:600;font-size:14px;font-family:Arial, sans-serif;text-anchor:middle;fill:#000000">534</text><text
       id="room-535-label"
       x="281.82358"
       y="405.66119"
       style="font-weight:600;font-size:14px;font-family:Arial, sans-serif;text-anchor:middle;fill:#000000">535</text><text
       id="room-536-label"
       x="442.30356"
       y="404.5412"
       style="font-weight:600;font-size:14px;font-family:Arial, sans-serif;text-anchor:middle;fill:#000000">536</text><text
       id="room-537-label"
       x="461.18356"
       y="430.94122"
       style="font-weight:600;font-size:14px;font-family:Arial, sans-serif;text-anchor:middle;fill:#000000">537</text><text
       id="room-538-label"
       x="521.66357"
       y="644.38123"
       style="font-weight:600;font-size:14px;font-family:Arial, sans-serif;text-anchor:middle;fill:#000000">538</text><text
       id="room-539-label"
       x="555.07623"
       y="873.83386"
       style="font-weight:600;font-size:14px;font-family:Arial, sans-serif;text-anchor:middle;fill:#000000">539</text><text
       id="room-540-label"
       x="521.02356"
       y="1010.6212"
       style="font-weight:600;font-size:14px;font-family:Arial, sans-serif;text-anchor:middle;fill:#000000">540</text><text
       id="room-541-label"
       x="505.33783"
       y="1097.9812"
       style="font-weight:600;font-size:14px;font-family:Arial, sans-serif;text-anchor:middle;fill:#000000">541</text><text
       id="note-538"
       x="521.66357"
       y="661.38123"
       style="font-size:7px;font-family:Arial, sans-serif;text-anchor:middle;fill:#666666">ELECTRICAL</text><text
       id="note-540"
       x="521.02356"
       y="1027.6212"
       style="font-size:7px;font-family:Arial, sans-serif;text-anchor:middle;fill:#666666">ELECTRICAL</text></g><g
     id="map-infrastructure-f5"
     inkscape:groupmode="layer"
     inkscape:label="MAP - Infrastructure"><path
       id="rect5-f5"
       d="m 491.88338,907.4724 147.90707,0.68448 -0.41605,42.7521 -147.90708,-0.68448 z"
       style="fill:none;stroke:#ff0000;stroke-width:2;stroke-dasharray:none;stroke-opacity:1" /><path
       id="rect5-8-f5"
       d="m 496.89421,706.60638 147.90708,0.68449 -0.41606,42.7521 -147.90707,-0.68448 z"
       style="fill:none;stroke:#ff0000;stroke-width:2;stroke-dasharray:none;stroke-opacity:1" /><path
       style="fill:none;stroke:#ff0000;stroke-width:2;stroke-dasharray:none;stroke-opacity:1"
       d="M 309.70157,375.65188 C 292.72088,347.30047 293.07304,347.3021 293.07304,347.3021 l 75.07728,-42.75138 75.98582,44.82963 -17.52425,27.50214 -43.40609,-27.09453 -31.71116,1.5772 z"
       id="path6-f5" /><path
       id="rect14329-f5"
       d="m 455.60141,580.25382 40.52085,0.18752 -0.4462,45.84963 -40.52086,-0.18752 z"
       style="fill:none;stroke:#ff0000;stroke-width:1.08409;stroke-dasharray:none;stroke-opacity:1" /><path
       id="rect14330-f5"
       d="m 450.56285,1032.5166 40.52085,0.1876 -0.4462,45.8496 -40.52086,-0.1875 z"
       style="fill:none;stroke:#ff0000;stroke-width:1.08409;stroke-dasharray:none;stroke-opacity:1" /><path
       id="rect14331-f5"
       d="m 340.03349,407.85025 40.52086,0.18752 -0.44621,45.84963 -40.52085,-0.18752 z"
       style="fill:none;stroke:#ff0000;stroke-width:1.08409;stroke-dasharray:none;stroke-opacity:1" /><text
       id="LIFT1-visual"
       x="359.63062"
       y="442.16873"
       style="font-weight:bold;font-size:9px;font-family:Arial, sans-serif;text-anchor:middle;fill:#cc0000">LIFT1</text><text
       id="LIFT2-visual"
       x="474.97696"
       y="637.34155"
       style="font-weight:bold;font-size:9px;font-family:Arial, sans-serif;text-anchor:middle;fill:#cc0000">LIFT2</text><text
       id="LIFT3-visual"
       x="470.80017"
       y="1066.5262"
       style="font-weight:bold;font-size:9px;font-family:Arial, sans-serif;text-anchor:middle;fill:#cc0000">LIFT3</text><text
       id="STAIR3-visual"
       x="370.87448"
       y="334.42068"
       style="font-weight:bold;font-size:9px;font-family:Arial, sans-serif;text-anchor:middle;fill:#cc0000">STAIR3</text><text
       id="STAIR2-visual"
       x="569.90491"
       y="730.6087"
       style="font-weight:bold;font-size:9px;font-family:Arial, sans-serif;text-anchor:middle;fill:#cc0000">STAIR2</text><text
       id="STAIR1-visual"
       x="565.90387"
       y="932.21625"
       style="font-weight:bold;font-size:9px;font-family:Arial, sans-serif;text-anchor:middle;fill:#cc0000">STAIR1</text></g><g
     id="nav-nodes-f5"
     inkscape:groupmode="layer"
     inkscape:label="NAV - Nodes"><circle
       id="526"
       cx="431"
       cy="1238.3"
       inkscape:label="526"
       style="fill:#008000;stroke:#008000;stroke-width:1.1;stroke-opacity:1"
       r="2.75"><title
         id="title2">526</title></circle><circle
       id="527"
       cx="293.79999"
       cy="1318.5"
       inkscape:label="527"
       style="fill:#008000;stroke:#008000;stroke-width:1.1;stroke-opacity:1"
       r="2.75"><title
         id="title3">527</title></circle><circle
       id="528"
       cx="263"
       cy="1257"
       inkscape:label="528"
       style="fill:#008000;stroke:#008000;stroke-width:1.1;stroke-opacity:1"
       r="2.75"><title
         id="title4">528</title></circle><circle
       id="529"
       cx="283.70001"
       cy="1218.2"
       inkscape:label="529"
       style="fill:#008000;stroke:#008000;stroke-width:1.1;stroke-opacity:1"
       r="2.75"><title
         id="title5">529</title></circle><circle
       id="530"
       cx="283.39999"
       cy="1046"
       inkscape:label="530"
       style="fill:#008000;stroke:#008000;stroke-width:1.1;stroke-opacity:1"
       r="2.75"><title
         id="title6">530</title></circle><circle
       id="531"
       cx="285"
       cy="881"
       inkscape:label="531"
       style="fill:#008000;stroke:#008000;stroke-width:1.1;stroke-opacity:1"
       r="2.75"><title
         id="title7">531</title></circle><circle
       id="532"
       cx="285.91849"
       cy="718"
       inkscape:label="532"
       style="fill:#008000;stroke:#008000;stroke-width:1.1;stroke-opacity:1"
       r="2.75"><title
         id="title8">532</title></circle><circle
       id="534"
       cx="289.20001"
       cy="551.20001"
       inkscape:label="534"
       style="fill:#008000;stroke:#008000;stroke-width:1.1;stroke-opacity:1"
       r="2.75"><title
         id="title9">534</title></circle><circle
       id="535"
       cx="274.79999"
       cy="403"
       inkscape:label="535"
       style="fill:#008000;stroke:#008000;stroke-width:1.1;stroke-opacity:1"
       r="2.75"><title
         id="title10">535</title></circle><circle
       id="536"
       cx="451"
       cy="397.20001"
       inkscape:label="536"
       style="fill:#008000;stroke:#008000;stroke-width:1.1;stroke-opacity:1"
       r="2.75"><title
         id="title11">536</title></circle><circle
       id="LIFT1-F5"
       cx="360.03818"
       cy="413.5325"
       inkscape:label="LIFT1-F5"
       style="fill:#008000;stroke:#008000;stroke-width:1.1;stroke-opacity:1"
       r="2.75"><title
         id="title12">LIFT1-F5</title></circle><circle
       id="LIFT2-F5"
       cx="476.79901"
       cy="621.54974"
       inkscape:label="LIFT2-F5"
       style="fill:#008000;stroke:#008000;stroke-width:1.1;stroke-opacity:1"
       r="2.75"><title
         id="title13">LIFT2-F5</title></circle><circle
       id="LIFT3-F5"
       cx="470.68445"
       cy="1030.1113"
       inkscape:label="LIFT3-F5"
       style="fill:#008000;stroke:#008000;stroke-width:1.1;stroke-opacity:1"
       r="2.75"><title
         id="title14">LIFT3-F5</title></circle><circle
       id="STAIRS1-F5-U"
       cx="492.00516"
       cy="928.71271"
       inkscape:label="STAIRS1-F5-U"
       style="fill:#008000;stroke:#008000;stroke-width:1.1;stroke-opacity:1"
       r="2.75"><title
         id="title15">STAIRS1-F5</title></circle><circle
       id="STAIRS2-F5-U"
       cx="495.45276"
       cy="725.48425"
       inkscape:label="STAIRS2-F5-U"
       style="fill:#008000;stroke:#008000;stroke-width:1.1;stroke-opacity:1"
       r="2.75"><title
         id="title16">STAIRS2-F5</title></circle><circle
       id="STAIRS3-F5-D"
       cx="437.32352"
       cy="364.92474"
       inkscape:label="STAIRS3-F5-D"
       style="fill:#008000;stroke:#008000;stroke-width:1.1;stroke-opacity:1"
       r="2.75"><title
         id="title17">STAIRS3-F5</title></circle><circle
       id="ellipse14309"
       cx="445.25632"
       cy="1221.8173"
       inkscape:label="ellipse14309"
       style="fill:#008000;stroke:#008000;stroke-width:1.1;stroke-opacity:1"
       r="2.75"><title
         id="title18">ellipse14309</title></circle><circle
       id="ellipse14323"
       cx="360.2113"
       cy="395.7355"
       inkscape:label="ellipse14323"
       style="fill:#008000;stroke:#008000;stroke-width:1.1;stroke-opacity:1"
       r="2.75"><title
         id="title20">ellipse14323</title></circle><circle
       id="ellipse33"
       cx="433"
       cy="968"
       inkscape:label="ellipse33"
       style="fill:#008000;stroke:#008000;stroke-width:1.1;stroke-opacity:1"
       r="2.75"><title
         id="title21">ellipse33</title></circle><circle
       id="ellipse34"
       cx="472.2211"
       cy="682"
       inkscape:label="ellipse34"
       style="fill:#008000;stroke:#008000;stroke-width:1.1;stroke-opacity:1"
       r="2.75"><title
         id="title22">ellipse34</title></circle><circle
       id="ellipse35"
       cx="472.2211"
       cy="884.72632"
       inkscape:label="ellipse35"
       style="fill:#008000;stroke:#008000;stroke-width:1.1;stroke-opacity:1"
       r="2.75"><title
         id="title23">ellipse35</title></circle><circle
       id="ellipse36"
       cx="470.04214"
       cy="766"
       inkscape:label="ellipse36"
       style="fill:#008000;stroke:#008000;stroke-width:1.1;stroke-opacity:1"
       r="2.75"><title
         id="title24">ellipse36</title></circle><circle
       id="ellipse37"
       cx="296"
       cy="881"
       inkscape:label="ellipse37"
       style="fill:#008000;stroke:#008000;stroke-width:1.1;stroke-opacity:1"
       r="2.75"><title
         id="title25">ellipse37</title></circle><circle
       id="ellipse38"
       cx="296"
       cy="1045"
       inkscape:label="ellipse38"
       style="fill:#008000;stroke:#008000;stroke-width:1.1;stroke-opacity:1"
       r="2.75"><title
         id="title26">ellipse38</title></circle><circle
       id="ellipse45"
       cx="439.83414"
       cy="428.04227"
       inkscape:label="ellipse45"
       style="fill:#008000;stroke:#008000;stroke-width:1.1;stroke-opacity:1"
       r="2.75"><title
         id="title29">ellipse45</title></circle><circle
       id="ellipse46"
       cx="434.90616"
       cy="397.0564"
       inkscape:label="ellipse46"
       style="fill:#008000;stroke:#008000;stroke-width:1.1;stroke-opacity:1"
       r="2.75"><title
         id="title30">ellipse46</title></circle><circle
       id="ellipse47"
       cx="323.34769"
       cy="396.54013"
       inkscape:label="ellipse47"
       style="fill:#008000;stroke:#008000;stroke-width:1.1;stroke-opacity:1"
       r="2.75"><title
         id="title31">ellipse47</title></circle><circle
       id="ellipse48"
       cx="300"
       cy="552"
       inkscape:label="ellipse48"
       style="fill:#008000;stroke:#008000;stroke-width:1.1;stroke-opacity:1"
       r="2.75"><title
         id="title32">ellipse48</title></circle><circle
       id="ellipse49"
       cx="296"
       cy="718"
       inkscape:label="ellipse49"
       style="fill:#008000;stroke:#008000;stroke-width:1.1;stroke-opacity:1"
       r="2.75"><title
         id="title33">ellipse49</title></circle><circle
       id="ellipse50"
       cx="296"
       cy="766"
       inkscape:label="ellipse50"
       style="fill:#008000;stroke:#008000;stroke-width:1.1;stroke-opacity:1"
       r="2.75"><title
         id="title34">ellipse50</title></circle><circle
       id="ellipse53"
       cx="415.33685"
       cy="1167.6421"
       inkscape:label="ellipse53"
       style="fill:#008000;stroke:#008000;stroke-width:1.1;stroke-opacity:1"
       r="2.75"><title
         id="title35">ellipse53</title></circle><circle
       id="ellipse54"
       cx="296"
       cy="1217"
       inkscape:label="ellipse54"
       style="fill:#008000;stroke:#008000;stroke-width:1.1;stroke-opacity:1"
       r="2.75"><title
         id="title36">ellipse54</title></circle><circle
       id="ellipse55"
       cx="296.42685"
       cy="1258.0127"
       inkscape:label="ellipse55"
       style="fill:#008000;stroke:#008000;stroke-width:1.1;stroke-opacity:1"
       r="2.75"><title
         id="title37">ellipse55</title></circle><circle
       id="537-1"
       inkscape:label="537-1"
       cx="451"
       cy="428"
       style="fill:#008000;stroke:#008000;stroke-width:1.1;stroke-opacity:1"
       r="2.75"><title
         id="title38">537-1</title></circle><circle
       id="ellipse541"
       inkscape:label=""
       cx="431.78949"
       cy="1090.179"
       style="fill:#008000;stroke:#008000;stroke-width:1.1;stroke-opacity:1"
       r="2.75"><title
         id="title40">541-1</title></circle><circle
       id="533-1"
       inkscape:label="533-1"
       cx="330.44955"
       cy="718"
       style="fill:#008000;stroke:#008000;stroke-width:1.1;stroke-opacity:1"
       r="2.75"><title
         id="title43">533-1</title></circle><circle
       id="533-2"
       inkscape:label="533-2"
       cx="414"
       cy="718"
       style="fill:#008000;stroke:#008000;stroke-width:1.1;stroke-opacity:1"
       r="2.75"><title
         id="title44">533-2</title></circle><circle
       id="STAIRS3-F5-U"
       cx="298.14215"
       cy="362.52008"
       inkscape:label="STAIRS3-F5-U"
       style="fill:#008000;stroke:#008000;stroke-width:1.1;stroke-opacity:1"
       r="2.75"><title
         id="title31-4">STAIRS-3-U</title></circle><circle
       id="STAIRS2-F5-D"
       cx="646.40143"
       cy="726.80316"
       inkscape:label="STAIRS2-F5-D"
       style="fill:#008000;stroke:#008000;stroke-width:1.1;stroke-opacity:1"
       r="2.75"><title
         id="title51">STAIRS2-F5</title></circle><circle
       id="circle52"
       cx="644.69952"
       cy="685.36285"
       inkscape:label=""
       style="fill:#008000;stroke:#008000;stroke-width:1.1;stroke-opacity:1"
       r="2.75"><title
         id="title52">STAIRS2-F5</title></circle><circle
       id="STAIRS1-F5-D"
       cx="641.44482"
       cy="930.07458"
       inkscape:label="STAIRS1-F5-D"
       style="fill:#008000;stroke:#008000;stroke-width:1.1;stroke-opacity:1"
       r="2.75"><title
         id="title53">STAIRS1-F5</title></circle><circle
       id="circle54"
       cx="645.32568"
       cy="972.0896"
       inkscape:label="STAIRS1-F5-D"
       style="fill:#008000;stroke:#008000;stroke-width:1.1;stroke-opacity:1"
       r="2.75"><title
         id="title54">STAIRS1-F5</title></circle><circle
       id="circle55"
       inkscape:label="541-1"
       cx="432.21118"
       cy="1028.7681"
       style="fill:#008000;stroke:#008000;stroke-width:1.1;stroke-opacity:1"
       r="2.75"><title
         id="title55">541-1</title></circle><circle
       id="circle61"
       inkscape:label="541-1"
       cx="471.06912"
       cy="969.57324"
       style="fill:#008000;stroke:#008000;stroke-width:1.1;stroke-opacity:1"
       r="2.75"><title
         id="title61">541-1</title></circle><circle
       id="circle83"
       cx="436.63159"
       cy="680.54736"
       inkscape:label="ellipse34"
       style="fill:#008000;stroke:#008000;stroke-width:1.1;stroke-opacity:1"
       r="2.75"><title
         id="title83">ellipse34</title></circle><circle
       id="circle84"
       cx="471.49478"
       cy="929.75793"
       inkscape:label="ellipse35"
       style="fill:#008000;stroke:#008000;stroke-width:1.1;stroke-opacity:1"
       r="2.75"><title
         id="title84">ellipse35</title></circle><circle
       id="circle85"
       cx="472.2211"
       cy="723.14734"
       inkscape:label="ellipse36"
       style="fill:#008000;stroke:#008000;stroke-width:1.1;stroke-opacity:1"
       r="2.75"><title
         id="title85">ellipse36</title></circle><circle
       id="539"
       cx="523.96466"
       cy="891.27454"
       inkscape:label="ellipse35"
       style="fill:#008000;stroke:#008000;stroke-width:1.1;stroke-opacity:1"
       r="2.75"><title
         id="title99">ellipse35</title></circle><circle
       id="circle19"
       inkscape:label="541-1"
       cx="453.76056"
       cy="1093.6289"
       style="fill:#008000;stroke:#008000;stroke-width:1.1;stroke-opacity:1"
       r="2.75"><title
         id="title19">541-1</title></circle></g><g
     id="nav-edges-f5"
     inkscape:groupmode="layer"
     inkscape:label="NAV - Edges"><path
       id="F5E009"
       inkscape:label="ellipse37 -&gt; ellipse50"
       d="M 296,881 V 766"
       style="fill:none;stroke:#0093ff;stroke-width:1.2;stroke-linecap:round;stroke-linejoin:round;stroke-opacity:1" /><path
       id="F5E010"
       inkscape:label="ellipse50 -&gt; ellipse49"
       d="M 296,766 V 718"
       style="fill:none;stroke:#0093ff;stroke-width:1.2;stroke-linecap:round;stroke-linejoin:round;stroke-opacity:1" /><path
       id="F5E011"
       inkscape:label="ellipse49 -&gt; 532"
       d="m 296,718 h -7"
       style="fill:none;stroke:#0093ff;stroke-width:1.2;stroke-linecap:round;stroke-linejoin:round;stroke-opacity:1" /><path
       id="F5E018"
       inkscape:label="ellipse54 -&gt; 529"
       d="m 296,1217 -12.3,1.2"
       style="fill:none;stroke:#0093ff;stroke-width:1.2;stroke-linecap:round;stroke-linejoin:round;stroke-opacity:1" /><path
       id="F5E019"
       inkscape:label="ellipse54 -&gt; ellipse55"
       d="m 296,1217 0.42685,41.0127"
       style="fill:none;stroke:#0093ff;stroke-width:1.2;stroke-linecap:round;stroke-linejoin:round;stroke-opacity:1" /><path
       id="F5E020"
       inkscape:label="ellipse55 -&gt; 528"
       d="M 296.42685,1258.0127 263,1257"
       style="fill:none;stroke:#0093ff;stroke-width:1.2;stroke-linecap:round;stroke-linejoin:round;stroke-opacity:1" /><path
       id="F5E021"
       inkscape:label="ellipse55 -&gt; 527"
       d="M 296.42685,1258.0127 293.8,1318.5"
       style="fill:none;stroke:#0093ff;stroke-width:1.2;stroke-linecap:round;stroke-linejoin:round;stroke-opacity:1" /><path
       id="F5E022"
       inkscape:label="ellipse54 -&gt; ellipse38"
       d="M 296,1217 V 1045"
       style="fill:none;stroke:#0093ff;stroke-width:1.2;stroke-linecap:round;stroke-linejoin:round;stroke-opacity:1" /><path
       id="F5E023"
       inkscape:label="ellipse38 -&gt; 530"
       d="m 296,1045 -12.6,1"
       style="fill:none;stroke:#0093ff;stroke-width:1.2;stroke-linecap:round;stroke-linejoin:round;stroke-opacity:1" /><path
       id="F5E024"
       inkscape:label="ellipse38 -&gt; ellipse37"
       d="M 296,1045 V 881"
       style="fill:none;stroke:#0093ff;stroke-width:1.2;stroke-linecap:round;stroke-linejoin:round;stroke-opacity:1" /><path
       id="F5E026"
       inkscape:label="ellipse14309 -&gt; 526"
       d="M 445.25633,1221.8173 431,1238.3"
       style="fill:none;stroke:#0093ff;stroke-width:1.2;stroke-linecap:round;stroke-linejoin:round;stroke-opacity:1" /><path
       id="F5E031"
       inkscape:label="ellipse45 -&gt; ellipse46"
       d="m 439.83415,428.04226 -4.92798,-30.98588"
       style="fill:none;stroke:#0093ff;stroke-width:1.2;stroke-linecap:round;stroke-linejoin:round;stroke-opacity:1" /><path
       id="F5E033"
       inkscape:label="ellipse46 -&gt; ellipse14323"
       d="M 434.90617,397.05638 360.21131,395.7355"
       style="fill:none;stroke:#0093ff;stroke-width:1.2;stroke-linecap:round;stroke-linejoin:round;stroke-opacity:1" /><path
       id="F5E034"
       inkscape:label="ellipse14323 -&gt; LIFT1-F5"
       d="m 360.21131,395.7355 -0.17314,17.797"
       style="fill:none;stroke:#0093ff;stroke-width:1.2;stroke-linecap:round;stroke-linejoin:round;stroke-opacity:1" /><path
       id="F5E035"
       inkscape:label="ellipse14323 -&gt; ellipse47"
       d="m 360.21131,395.7355 -36.86364,0.80462"
       style="fill:none;stroke:#0093ff;stroke-width:1.2;stroke-linecap:round;stroke-linejoin:round;stroke-opacity:1" /><path
       id="F5E036"
       inkscape:label="ellipse47 -&gt; 535"
       d="M 323.34767,396.54012 274.8,403"
       style="fill:none;stroke:#0093ff;stroke-width:1.2;stroke-linecap:round;stroke-linejoin:round;stroke-opacity:1" /><path
       id="F5E037"
       inkscape:label="ellipse47 -&gt; 536"
       d="M 323.34767,396.54012 451,397.2"
       style="fill:none;stroke:#0093ff;stroke-width:1.2;stroke-linecap:round;stroke-linejoin:round;stroke-opacity:1" /><path
       id="F5E038"
       inkscape:label="ellipse47 -&gt; ellipse48"
       d="M 323.34767,396.54012 300,552"
       style="fill:none;stroke:#0093ff;stroke-width:1.2;stroke-linecap:round;stroke-linejoin:round;stroke-opacity:1" /><path
       id="F5E039"
       inkscape:label="ellipse48 -&gt; 534"
       d="m 300,552 -10.8,-0.8"
       style="fill:none;stroke:#0093ff;stroke-width:1.2;stroke-linecap:round;stroke-linejoin:round;stroke-opacity:1" /><path
       id="F5E040"
       inkscape:label="ellipse48 -&gt; ellipse49"
       d="m 300,552 -4,166"
       style="fill:none;stroke:#0093ff;stroke-width:1.2;stroke-linecap:round;stroke-linejoin:round;stroke-opacity:1" /><path
       id="F5E041"
       inkscape:label="ellipse37 -&gt; 531"
       d="M 296,881 H 285"
       style="fill:none;stroke:#0093ff;stroke-width:1.2;stroke-linecap:round;stroke-linejoin:round;stroke-opacity:1" /><path
       id="F5E042"
       inkscape:label="537-1 -&gt; ellipse45"
       d="m 451,428 -11.16585,0.0423"
       style="fill:none;stroke:#0093ff;stroke-width:1.2;stroke-linecap:round;stroke-linejoin:round;stroke-opacity:1" /><path
       style="opacity:1;fill:none;fill-opacity:1;stroke:#0095ff;stroke-opacity:1"
       d="m 415.489,1167.8887 c -119.15135,48.7905 -119.15135,48.7905 -119.15135,48.7905"
       id="path56" /><path
       style="opacity:1;fill:none;fill-opacity:1;stroke:#0095ff;stroke-opacity:1"
       d="m 295.79246,718.05482 c 34.59084,-0.0908 34.59084,-0.0908 34.59084,-0.0908"
       id="path60" /><path
       style="fill:none;stroke:#00aaff"
       d="M 323.3925,397.02286 C 297.88063,362.88597 297.88063,362.88597 297.88063,362.88597"
       id="path1" /><path
       style="fill:none;stroke:#00aaff"
       d="m 434.88211,396.93207 c 2.90527,-32.13952 2.90527,-32.13952 2.90527,-32.13952"
       id="path2" /><path
       style="fill:none;stroke:#00aaff"
       d="m 642.06395,929.68536 c 3.26842,42.48952 3.26842,42.48952 3.26842,42.48952"
       id="path3" /><path
       style="fill:none;stroke:#00aaff"
       d="M 644.2429,971.08541 C 472.469,968.90646 472.469,968.90646 472.469,968.90646"
       id="path72" /><path
       style="fill:none;stroke:#00aaff"
       d="m 471.01637,968.5433 c -38.85794,-0.72632 -38.85794,-0.72632 -38.85794,-0.72632"
       id="path76" /><path
       style="fill:none;stroke:#00aaff"
       d="m 472.10584,969.99593 c -0.72631,59.55797 -0.72631,59.55797 -0.72631,59.55797"
       id="path77" /><path
       style="fill:none;stroke:#00aaff"
       d="m 432.52159,968.90646 c 0,59.19484 0,59.19484 0,59.19484"
       id="path78" /><path
       style="fill:none;stroke:#00aaff"
       d="m 432.88474,1028.8276 c -1.08947,61.0106 -1.08947,61.0106 -1.08947,61.0106"
       id="path80" /><path
       style="fill:none;stroke:#00aaff"
       d="m 416.54262,1167.1909 c 15.61581,-78.079 15.61581,-78.079 15.61581,-78.079"
       id="path81" /><path
       style="fill:none;stroke:#00aaff"
       d="m 444.50581,1221.3015 c -29.05267,-53.7474 -29.05267,-53.7474 -29.05267,-53.7474"
       id="path82" /><path
       style="fill:none;stroke:#00aaff"
       d="m 471.7264,969.26037 c -0.38519,-40.05951 -0.38519,-40.05951 -0.38519,-40.05951"
       id="path85" /><path
       style="fill:none;stroke:#00aaff"
       d="m 471.37953,928.95904 c 20.70002,-0.36316 20.70002,-0.36316 20.70002,-0.36316"
       id="path86" /><path
       style="fill:none;stroke:#00aaff"
       d="m 471.37953,929.50378 c 0.36316,-44.66848 0.36316,-44.66848 0.36316,-44.66848"
       id="path87" /><path
       style="fill:none;stroke:#00aaff"
       d="m 471.74269,884.65372 c -1.8158,-119.11594 -1.8158,-119.11594 -1.8158,-119.11594"
       id="path88" /><path
       style="fill:none;stroke:#00aaff"
       d="m 469.92689,766.99042 c 1.45264,-43.94216 1.45264,-43.94216 1.45264,-43.94216"
       id="path89" /><path
       style="fill:none;stroke:#00aaff"
       d="M 494.98482,724.86405 C 472.83216,722.6851 472.83216,722.6851 472.83216,722.6851"
       id="path90" /><path
       style="fill:none;stroke:#00aaff"
       d="m 472.83216,722.6851 c -1.08947,-41.03689 -1.08947,-41.03689 -1.08947,-41.03689"
       id="path91" /><path
       style="fill:none;stroke:#00aaff"
       d="m 471.74269,681.64821 c -34.50005,-0.36316 -34.50005,-0.36316 -34.50005,-0.36316"
       id="path92" /><path
       style="fill:none;stroke:#00aaff"
       d="m 436.51633,680.19557 c -21.42635,37.40531 -21.42635,37.40531 -21.42635,37.40531"
       id="path93" /><path
       style="fill:none;stroke:#00aaff"
       d="m 473.55848,682.01137 c 3.99474,-59.92113 3.99474,-59.92113 3.99474,-59.92113"
       id="path94" /><path
       style="fill:none;stroke:#00aaff"
       d="m 436.51633,680.92189 c 2.54211,-251.30557 2.54211,-251.30557 2.54211,-251.30557"
       id="path95" /><path
       style="fill:none;stroke:#00aaff"
       d="m 646.96659,727.40616 c -1.8158,-41.58163 -1.8158,-41.58163 -1.8158,-41.58163"
       id="path96" /><path
       style="fill:none;stroke:#00aaff"
       d="M 645.06082,684.09316 C 473.52394,682.03882 473.52394,682.03882 473.52394,682.03882"
       id="path97" /><path
       style="fill:none;stroke:#00aaff"
       d="m 296.85124,882.33637 c 176.6727,1.02717 176.6727,1.02717 176.6727,1.02717"
       id="path98" /><path
       style="fill:none;stroke:#00aaff"
       d="m 297.36482,766.00972 c 172.82083,-1.02717 172.82083,-1.02717 172.82083,-1.02717"
       id="path99" /><path
       style="fill:none;stroke:#00aaff"
       d="m 472.23998,884.6475 c 52.38552,6.67658 52.38552,6.67658 52.38552,6.67658"
       id="path100" /><path
       style="fill:none;stroke:#00aaff"
       d="m 431.43211,1090.3829 c 22.6974,3.2684 22.6974,3.2684 22.6974,3.2684"
       id="path19" /></g><metadata
     id="metadata63"><rdf:RDF><cc:Work
         rdf:about=""><dc:title>PRP E Block - 1st Floor CampusNav Final Map</dc:title></cc:Work></rdf:RDF></metadata><title
     id="title1-0">PRP E Block - 4th Floor CampusNav Final Map</title></svg>
